<?xml version="1.0" encoding="utf-8"?>
<!-- Generator: Adobe Illustrator 23.0.3, SVG Export Plug-In . SVG Version: 6.00 Build 0)  -->
<svg version="1.1" id="Layer_1" xmlns="http://www.w3.org/2000/svg" xmlns:xlink="http://www.w3.org/1999/xlink" x="0px" y="0px"
	 viewBox="0 0 365.47 97.1" style="enable-background:new 0 0 365.47 97.1;" xml:space="preserve">
<style type="text/css">
	.st0{fill:url(#SVGID_1_);}
	.st1{fill:#FFFFFF;}
</style>
<g>
	
		<linearGradient id="SVGID_1_" gradientUnits="userSpaceOnUse" x1="207.607" y1="41.1714" x2="304.2352" y2="44.4656" gradientTransform="matrix(-1 0 0 1 278.3747 0)">
		<stop  offset="0" style="stop-color:#34F5C5"/>
		<stop  offset="0.5" style="stop-color:#21D0B2"/>
		<stop  offset="1" style="stop-color:#21D0B3"/>
	</linearGradient>
	<path class="st0" d="M6.24,54c1.88-6.72,4.65-12.95,8.54-18.48c0.77,9.04,10.21,24.22,16.4,27.45c-0.13-0.3-0.18-0.45-0.27-0.59
		c-1.81-2.89-13.42-19.02-14.23-28.89c-0.01-0.16-0.02-0.31-0.03-0.47c-0.01-0.2-0.02-0.39-0.02-0.58
		c-0.32-4.15,0.07-8.22,1.03-12.22c1.52-6.34,4.77-11.83,8.67-16.98c0.49-0.64,0.72-0.7,1.04,0.1c1.09,2.68,2.52,5.18,4.22,7.54
		c1.24,2.13,6.06,6.26,11.71,11.73c0.57,0.55,1.15,1.12,1.73,1.7c11.76,11.67,25.81,28.66,19.16,45.68
		c-2.66-1.54-8.1-4.5-10.56-6.35c-6.11-4.59-11.51-9.89-16.09-16.01c-3.93-5.24-7.05-10.87-9.26-16.92c-0.78-2.15-1.45-4.35-2-6.61
		c-0.05-0.2-0.1-0.4-0.15-0.6c-0.43-0.31-0.57,0.51-0.56,0.59c0,0,0.03,0.15,0.07,0.4c0.2,1.11,0.79,4.33,1.37,6.56
		c0.1,0.37,0.19,0.72,0.29,1.02c2.11,6.87,5.37,13.17,9.51,19.03c4.24,6.01,9.64,10.42,15.57,14.78c3.51,2.58,7.16,4.5,10.91,6.42
		c-2.21,3-5.25,5.33-9.12,6.99c-5.62,2.41-11.7,2.72-17.74,2.99c-1.5-0.04-2.98-0.18-4.47-0.3c-4.02-0.32-7.93-0.99-11.8-2.21
		C9.57,76.39,3.21,64.83,6.24,54z"/>
</g>
<g>
	<path class="st1" d="M93.38,77.34V20.29h9.33v57.05H93.38z"/>
	<path class="st1" d="M138.69,78.12c-5.46,0-9.7-1.96-12.72-5.89h-0.55c0.36,3.64,0.55,5.85,0.55,6.63v17.68h-9.17V34.18h7.41
		c0.21,0.8,0.64,2.73,1.29,5.78h0.47c2.86-4.37,7.15-6.56,12.88-6.56c5.39,0,9.58,1.95,12.58,5.85s4.51,9.38,4.51,16.43
		c0,7.05-1.53,12.55-4.58,16.5C148.29,76.14,144.07,78.12,138.69,78.12z M136.46,40.89c-3.64,0-6.3,1.07-7.98,3.2
		c-1.68,2.13-2.52,5.54-2.52,10.23v1.37c0,5.25,0.83,9.06,2.5,11.41c1.66,2.35,4.38,3.53,8.16,3.53c3.17,0,5.62-1.3,7.34-3.9
		c1.72-2.6,2.58-6.31,2.58-11.12c0-4.84-0.85-8.5-2.56-10.98C142.27,42.14,139.77,40.89,136.46,40.89z"/>
	<path class="st1" d="M204.56,77.34h-9.21V50.81c0-3.33-0.67-5.81-2.01-7.45c-1.34-1.64-3.47-2.46-6.38-2.46
		c-3.85,0-6.68,1.15-8.49,3.45c-1.81,2.3-2.71,6.16-2.71,11.57v21.42h-9.17V16.62h9.17v15.41c0,2.47-0.16,5.11-0.47,7.92h0.58
		c1.25-2.08,2.99-3.7,5.21-4.84c2.22-1.14,4.82-1.72,7.79-1.72c10.46,0,15.69,5.27,15.69,15.8V77.34z"/>
	<path class="st1" d="M244.32,77.34l-1.83-6.01h-0.31c-2.08,2.63-4.18,4.42-6.28,5.36c-2.11,0.95-4.81,1.42-8.12,1.42
		c-4.24,0-7.55-1.14-9.93-3.43c-2.38-2.29-3.57-5.53-3.57-9.72c0-4.45,1.65-7.8,4.96-10.07c3.3-2.26,8.34-3.5,15.1-3.71l7.45-0.23
		v-2.3c0-2.75-0.64-4.82-1.93-6.18c-1.29-1.37-3.28-2.05-5.99-2.05c-2.21,0-4.33,0.33-6.36,0.98c-2.03,0.65-3.98,1.42-5.85,2.3
		l-2.97-6.55c2.34-1.22,4.9-2.15,7.69-2.79c2.78-0.63,5.41-0.96,7.88-0.96c5.49,0,9.63,1.2,12.43,3.59c2.8,2.4,4.19,6.15,4.19,11.28
		v29.07H244.32z M230.66,71.1c3.33,0,6-0.93,8.02-2.79c2.02-1.86,3.02-4.47,3.02-7.82v-3.75l-5.54,0.23
		c-4.32,0.16-7.46,0.88-9.42,2.17c-1.96,1.29-2.95,3.26-2.95,5.91c0,1.92,0.57,3.41,1.72,4.47C226.65,70.57,228.37,71.1,230.66,71.1
		z"/>
	<path class="st1" d="M285.56,33.4c1.85,0,3.37,0.13,4.57,0.39l-0.9,8.55c-1.3-0.31-2.65-0.47-4.06-0.47c-3.67,0-6.64,1.2-8.92,3.59
		c-2.28,2.4-3.42,5.5-3.42,9.33v22.56h-9.17V34.18h7.18l1.21,7.61h0.47c1.43-2.58,3.3-4.62,5.6-6.13
		C280.43,34.16,282.91,33.4,285.56,33.4z"/>
	<path class="st1" d="M334.5,77.34h-9.21V50.73c0-3.3-0.62-5.77-1.87-7.39c-1.25-1.63-3.2-2.44-5.85-2.44
		c-3.54,0-6.13,1.15-7.79,3.45c-1.65,2.3-2.48,6.13-2.48,11.49v21.5h-9.17V34.18h7.18l1.29,5.66h0.47c1.2-2.05,2.93-3.64,5.21-4.76
		c2.28-1.12,4.78-1.68,7.51-1.68c6.63,0,11.03,2.27,13.19,6.79h0.63c1.27-2.13,3.07-3.8,5.38-4.99c2.32-1.2,4.97-1.8,7.96-1.8
		c5.15,0,8.9,1.3,11.26,3.9c2.35,2.6,3.53,6.57,3.53,11.9v28.13h-9.17V50.73c0-3.3-0.63-5.77-1.89-7.39
		c-1.26-1.63-3.22-2.44-5.87-2.44c-3.57,0-6.17,1.11-7.82,3.34c-1.65,2.22-2.48,5.64-2.48,10.24V77.34z"/>
</g>
</svg>
