<?xml version="1.0" encoding="utf-8"?>
<!-- Generator: Adobe Illustrator 25.2.3, SVG Export Plug-In . SVG Version: 6.00 Build 0)  -->
<svg version="1.1" id="Layer_1" xmlns="http://www.w3.org/2000/svg" xmlns:xlink="http://www.w3.org/1999/xlink" x="0px" y="0px"
	 viewBox="0 0 67.3 85.2" style="enable-background:new 0 0 67.3 85.2;" xml:space="preserve">
<style type="text/css">
	.st0{fill:url(#SVGID_1_);}
</style>
<g>
	
		<linearGradient id="SVGID_1_" gradientUnits="userSpaceOnUse" x1="-1346.6869" y1="58.8181" x2="-1250.0586" y2="55.5239" gradientTransform="matrix(-1 0 0 -1 -1278.2123 100)">
		<stop  offset="0" style="stop-color:#34F5C5"/>
		<stop  offset="0.5" style="stop-color:#21D0B2"/>
		<stop  offset="1" style="stop-color:#21D0B3"/>
	</linearGradient>
	<path class="st0" d="M3.9,54c1.9-6.7,4.6-13,8.5-18.5c0.8,9,10.2,24.2,16.4,27.5c-0.1-0.3-0.2-0.5-0.3-0.6
		c-1.8-2.9-13.4-19-14.2-28.9c0-0.2,0-0.3,0-0.5c0-0.2,0-0.4,0-0.6c-0.3-4.1,0.1-8.2,1-12.2c1.5-6.3,4.8-11.8,8.7-17
		c0.5-0.6,0.7-0.7,1,0.1c1.1,2.7,2.5,5.2,4.2,7.5c1.2,2.1,6.1,6.3,11.7,11.7c0.6,0.5,1.2,1.1,1.7,1.7C54.5,36,68.5,53,61.9,70
		c-2.7-1.5-8.1-4.5-10.6-6.3c-6.1-4.6-11.5-9.9-16.1-16c-3.9-5.2-7-10.9-9.3-16.9c-0.8-2.1-1.5-4.4-2-6.6c0-0.2-0.1-0.4-0.1-0.6
		c-0.4-0.3-0.6,0.5-0.6,0.6c0,0,0,0.1,0.1,0.4c0.2,1.1,0.8,4.3,1.4,6.6c0.1,0.4,0.2,0.7,0.3,1c2.1,6.9,5.4,13.2,9.5,19
		c4.2,6,9.6,10.4,15.6,14.8c3.5,2.6,7.2,4.5,10.9,6.4c-2.2,3-5.2,5.3-9.1,7c-5.6,2.4-11.7,2.7-17.7,3c-1.5,0-3-0.2-4.5-0.3
		c-4-0.3-7.9-1-11.8-2.2C7.3,76.4,0.9,64.8,3.9,54z"/>
</g>
</svg>
