<svg xmlns="http://www.w3.org/2000/svg" width="853.38" height="645.212" viewBox="0 0 853.38 645.212">
  <g id="Groupe_553" data-name="Groupe 553" transform="translate(-1016.739 -143.895)">
    <g id="Groupe_535" data-name="Groupe 535" transform="translate(-13 18.106)">
      <g id="Groupe_531" data-name="Groupe 531" transform="translate(33 -31.284)">
        <path id="Tracé_466" data-name="Tracé 466" d="M560.318,627.019c-76.849-24.193-217.034-20.261-239.434-175.584s98.131-226.992,80-328.612,267.16-226.772,306.377,23.533,150.669,201.88,185.608,157.1,103.2-31.564,123.47,21.729,4.071,268.266-129.064,297.859S637.167,651.213,560.318,627.019Z" transform="translate(826.553 157.071)" fill="#2a94f4" opacity="0.1"/>
      </g>
      <g id="Groupe_534" data-name="Groupe 534" transform="translate(20 -69.799)">
        <g id="Groupe_533" data-name="Groupe 533">
          <g id="Groupe_532" data-name="Groupe 532" transform="translate(1355.753 211.556)">
            <path id="XMLID_41_" d="M325.5,477c1.955,20.586,13.623,51.884,15.363,78.449a220.948,220.948,0,0,1-1.669,45.067" transform="translate(-30.958 -37.687)" fill="none" stroke="#465172" stroke-linecap="round" stroke-linejoin="round" stroke-miterlimit="10" stroke-width="6"/>
            <path id="XMLID_25_" d="M348.238,728.411H262a48.6,48.6,0,0,1,.859-49.249l12.685-20.745H334.7l12.323,19.206a48.6,48.6,0,0,1,2.876,47.351Z" transform="translate(0 -118.168)" fill="#3389b9"/>
            <path id="XMLID_44_" d="M364.471,561.879s-.225,9.461-13.232,21.766" transform="translate(-42.376 -75.342)" fill="none" stroke="#465172" stroke-linecap="round" stroke-linejoin="round" stroke-miterlimit="10" stroke-width="6"/>
            <path id="XMLID_47_" d="M301.112,601s8.73,17.8,29.4,17.8" transform="translate(-20.139 -92.697)" fill="none" stroke="#465172" stroke-linecap="round" stroke-linejoin="round" stroke-miterlimit="10" stroke-width="6"/>
            <path id="XMLID_48_" d="M382.324,684.8s13.118,8.545,13.118,29.087" transform="translate(-56.166 -129.872)" fill="none" stroke="#1f668e" stroke-linecap="round" stroke-linejoin="round" stroke-miterlimit="10" stroke-width="6" opacity="0.67"/>
          </g>
        </g>
        <g id="Groupe_157" data-name="Groupe 157" transform="translate(1350.811 318.647)">
          <g id="Groupe_155" data-name="Groupe 155" transform="translate(263.735 156.353)">
            <path id="Tracé_359" data-name="Tracé 359" d="M333.433,437.484c8.812-.967,19.242-15.225,23.083-22.2,7.388-13.429,7.7-30.854,1.09-44.645-6.488-13.529-15.178-24.119-17.253-39.661-1.651-12.376,3.469-23.623,9.655-33.867,11.7-19.385,24.475-43.034,14.375-65.462-3.517-7.807-7.249-13.812-6.815-22.822.523-10.841,6.188-20.612,6.69-31.445.643-13.923-11.1-23.408-25.134-20.5-11.941,2.478-22.7,15.751-25.546,27.142-3.4,13.6-1.034,27.976-4.893,41.624-4.358,15.407-15.532,19.8-25.908,30.32-19.912,20.184-20.466,51.314-10.624,75.917,5.845,14.615,4.734,22.983-.289,37.284-3.85,10.959-8.593,23.2-8.092,34.948.68,15.925,16.785,33.283,31.913,36.617C305.318,442.852,322.113,443.871,333.433,437.484Z" transform="translate(-263.735 -156.353)" fill="#46d1b9"/>
            <path id="Tracé_360" data-name="Tracé 360" d="M302.458,436.416a.514.514,0,0,1-.418-.812c6.677-9.348,8.773-24.976,9.945-39.031,1.464-17.574-1.257-35.723-8.564-57.116-2.678-7.845-5.51-17.127-6.188-26.477-.894-12.329,2.289-21.1,7.246-33.068,2.3-5.563,5.083-11.166,7.765-16.584,6.655-13.431,13.536-27.319,14.262-42.407a114.361,114.361,0,0,0-.4-13.315c-.4-5.8-.818-11.8,0-17.668a58.537,58.537,0,0,1,9.352-24.876.514.514,0,1,1,.855.57,57.5,57.5,0,0,0-9.191,24.449c-.8,5.761-.393,11.706.006,17.455a114.626,114.626,0,0,1,.4,13.433c-.735,15.3-7.665,29.289-14.365,42.818-2.677,5.4-5.446,10.989-7.735,16.519-4.9,11.834-8.049,20.5-7.17,32.6.671,9.231,3.481,18.435,6.139,26.22,7.351,21.53,10.088,39.812,8.612,57.533-1.182,14.194-3.311,29.992-10.13,39.544a.515.515,0,0,1-.421.213Z" transform="translate(-256.239 -154.428)" fill="#30aa95"/>
          </g>
          <g id="Groupe_156" data-name="Groupe 156" transform="translate(325.522 229.836) rotate(-18)">
            <path id="Tracé_362" data-name="Tracé 362" d="M.032,121.507c.6-10.409,9.458-22.282,13.839-29.68,1.786-3.014,6.17-12.486,10.744-12.664,4.871-.19,3.738,6.716,6.122,8.846,2.877-7.238,7.7-14.04,11.476-20.951,4.724-8.658,8.547-17.85,14.841-25.571,11.6-14.233,8.335,6.045,8.187,13.052,3.355-3.327,4.766-8.906,7.02-13.029A231.044,231.044,0,0,1,90.99,12.552C94.561,7.828,100.509-.971,107.68.087c7.767,1.145,5.515,12.81,3.577,18.232C107.309,29.361,98.13,40.169,91.1,49.287a77.119,77.119,0,0,1-9.373,10.6c3.888-.075,10.23-3.51,13.909-2.044,5.062,2.015,3.154,9.089.571,12.762C90.4,78.86,75.453,83.26,67.835,87.535c5.283.257,21.33-1.683,14.081,7.7-5.878,7.61-18.768,9.675-26.525,14.571,3.709.8,11.208-.343,13.646,3.785,3.161,5.355-3.438,10.928-7.054,13.65C50.483,135.9,37.32,142.1,22.616,141.03c-7.086-.513-15.1-3.631-19.59-9.342A14.55,14.55,0,0,1,.032,121.507Z" fill="#46d1b9"/>
            <path id="Tracé_363" data-name="Tracé 363" d="M.512,126.416a.513.513,0,0,1-.323-.911c19.823-16.154,44.748-49.337,62.166-74.333C81.242,24.073,95.618.5,95.761.263A.514.514,0,1,1,96.638.8C96.5,1.035,82.108,24.635,63.2,51.759,45.743,76.8,20.753,110.071.837,126.3a.513.513,0,0,1-.325.115Z" transform="translate(6.906 9.883)" fill="#30aa95"/>
          </g>
        </g>
      </g>
    </g>
    <g id="Groupe_158" data-name="Groupe 158" transform="translate(753.007 480.399)">
      <g id="Groupe_155-2" data-name="Groupe 155" transform="translate(332.409 156.35)">
        <path id="Tracé_359-2" data-name="Tracé 359" d="M279.741,286.347c-4.074-.447-8.9-7.04-10.674-10.268a23.161,23.161,0,0,1-.5-20.644c3-6.256,7.018-11.153,7.978-18.339.764-5.723-1.6-10.923-4.465-15.662-5.412-8.964-11.318-19.9-6.647-30.27,1.626-3.61,3.352-6.386,3.151-10.553-.242-5.013-2.862-9.531-3.093-14.54-.3-6.437,5.132-10.824,11.622-9.477,5.521,1.146,10.5,7.283,11.813,12.551,1.571,6.292.478,12.937,2.263,19.247,2.015,7.124,7.182,9.158,11.98,14.02,9.207,9.333,9.464,23.728,4.912,35.1-2.7,6.758-2.189,10.628.134,17.24,1.78,5.067,3.973,10.73,3.742,16.157-.311,7.364-7.762,15.391-14.759,16.934C292.742,288.833,284.974,289.3,279.741,286.347Z" transform="translate(-263.735 -156.35)" fill="#46d1b9"/>
        <path id="Tracé_360-2" data-name="Tracé 360" d="M312.776,290.425a.233.233,0,0,0,.138-.044.238.238,0,0,0,.055-.332c-3.087-4.323-4.057-11.549-4.6-18.049-.677-8.126.581-16.519,3.962-26.411a49.959,49.959,0,0,0,2.862-12.243c.413-5.7-1.059-9.756-3.35-15.291-1.065-2.573-2.349-5.163-3.591-7.669-3.077-6.214-6.259-12.632-6.6-19.609a52.886,52.886,0,0,1,.186-6.156,39.464,39.464,0,0,0,0-8.17,27.068,27.068,0,0,0-4.324-11.5.239.239,0,1,0-.4.263,26.586,26.586,0,0,1,4.25,11.306,39.144,39.144,0,0,1,0,8.072,52.988,52.988,0,0,0-.186,6.214c.339,7.076,3.545,13.543,6.643,19.8,1.238,2.5,2.518,5.082,3.578,7.639,2.266,5.473,3.722,9.477,3.315,15.075a49.5,49.5,0,0,1-2.838,12.124c-3.4,9.955-4.661,18.41-3.982,26.6.544,6.564,1.531,13.869,4.684,18.285a.238.238,0,0,0,.2.1Z" transform="translate(-285.912 -160.032)" fill="#30aa95"/>
      </g>
      <path id="Tracé_361" data-name="Tracé 361" d="M364.931,269.071c-2.455-.727-6.639-2.773-8.3-4.8-1.343-1.644-1.527-3.711-2.446-5.555-1.136-2.282-2.729-3.443-4.676-4.952a21.072,21.072,0,0,1-7.425-10.508c-.645-1.864-1.025-3.757-2.23-5.376-1.637-2.2-4.163-3.465-5.438-5.954-.784-1.53-.762-2.952-1.2-4.574-.651-2.421-2.083-4.182-3.545-6.187a17.841,17.841,0,0,1-3.549-7.439c-.277-1.6-.017-2.922-.607-4.513-1.072-2.886-3.412-5.239-4.926-7.873-1.338-2.33-.923-3.472-1.291-5.851-.719-4.637-5.922-7.058-7.069-11.73-.556-2.274-1.075-6.028,2.253-4.976,3.747,1.184,4.81,6.531,6.673,9.342,1.937,2.922,4.476,4.188,5.671,7.78,1.426,4.278,3.934,4.446,7.164,7.324,3.172,2.828,3.418,7.284,5.826,10.615,1.653,2.282,4.039,3.78,5.606,6.068s.76,3.569,1.281,5.969c.813,3.748,5.72,4.847,6.851,8.437.511,1.621-.034,3.367.743,4.947,1.088,2.218,3.788,3.461,5.566,5.049,2.053,1.838,1.874,3.036,2.786,5.293.669,1.655,1.65,2.006,2.947,3.227,2.625,2.473,4.341,6.927,4.936,10.44C371.043,266.254,369.34,271.364,364.931,269.071Z" transform="translate(-26.018 -9.645)" fill="#f90"/>
      <g id="Groupe_156-2" data-name="Groupe 156" transform="translate(263.732 189.081)">
        <path id="Tracé_362-2" data-name="Tracé 362" d="M405.025,270.327c-.276-4.816-4.373-10.3-6.4-13.724-.826-1.394-2.852-5.774-4.971-5.855-2.253-.088-1.728,3.107-2.831,4.091-1.331-3.346-3.562-6.492-5.306-9.687-2.184-4-3.952-8.254-6.863-11.824-5.365-6.581-3.854,2.8-3.785,6.035-1.554-1.538-2.2-4.117-3.246-6.025a106.835,106.835,0,0,0-8.66-13.39c-1.652-2.184-4.4-6.252-7.718-5.763-3.591.53-2.55,5.924-1.654,8.431,1.825,5.106,6.07,10.1,9.322,14.319a35.656,35.656,0,0,0,4.335,4.9c-1.8-.034-4.731-1.624-6.432-.946-2.341.932-1.458,4.2-.264,5.9,2.682,3.816,9.6,5.85,13.119,7.827-2.443.119-9.865-.777-6.511,3.561,2.719,3.519,8.678,4.474,12.266,6.737-1.715.368-5.183-.155-6.31,1.75-1.462,2.476,1.59,5.053,3.263,6.311,5.32,4,11.4,6.868,18.2,6.376,3.277-.238,6.982-1.679,9.058-4.32a6.736,6.736,0,0,0,1.386-4.71Z" transform="translate(-352.727 -214.142)" fill="#46d1b9"/>
        <path id="Tracé_363-2" data-name="Tracé 363" d="M402.851,280.671a.237.237,0,0,0,.149-.421c-9.166-7.47-20.692-22.815-28.746-34.372-8.734-12.531-15.381-23.433-15.447-23.541a.237.237,0,1,0-.406.246c.066.109,6.72,11.021,15.458,23.564,8.072,11.584,19.629,26.966,28.838,34.471a.237.237,0,0,0,.154.052Z" transform="translate(-353.967 -217.646)" fill="#30aa95"/>
      </g>
    </g>
  </g>
</svg>
