<?xml version="1.0" encoding="utf-8"?>
<!-- Generator: Adobe Illustrator 23.0.3, SVG Export Plug-In . SVG Version: 6.00 Build 0)  -->
<svg version="1.1" id="Layer_1" xmlns="http://www.w3.org/2000/svg" xmlns:xlink="http://www.w3.org/1999/xlink" x="0px" y="0px"
	 viewBox="0 0 360 360" style="enable-background:new 0 0 360 360;" xml:space="preserve">
<style type="text/css">
	.st0{fill:#1BBA9A;}
</style>
<path id="XMLID_106_" class="st0" d="M270,136V90c0-22-15.4-41.8-43.4-55.8C201.8,21.8,169.3,15,135,15c-34.3,0-66.8,6.8-91.6,19.2
	C15.4,48.2,0,68,0,90v60v60v60c0,22,15.4,41.8,43.4,55.8C68.1,338.2,100.7,345,135,345c26.2,0,51.1-3.9,72.6-11.3
	c14.2,7.2,30.3,11.3,47.4,11.3c57.9,0,105-47.1,105-105C360,187.2,320.8,143.3,270,136z M30,198c4.1,2.8,8.6,5.4,13.4,7.8
	C68.1,218.2,100.7,225,135,225c5.4,0,10.8-0.2,16.1-0.5c-0.8,5.1-1.1,10.2-1.1,15.5c0,4.9,0.3,9.7,1,14.4c-5.3,0.4-10.6,0.6-16,0.6
	c-60.1,0-105-23.8-105-45V198z M160.8,193.5c-8.4,1-17.1,1.5-25.8,1.5c-60.1,0-105-23.8-105-45v-12c4.1,2.8,8.6,5.4,13.4,7.8
	C68.1,158.2,100.7,165,135,165c18.5,0,36.4-2,52.9-5.7C176.6,168.6,167.4,180.3,160.8,193.5z M135,45c60.1,0,105,23.8,105,45
	s-44.9,45-105,45c-60.1,0-105-23.8-105-45S74.9,45,135,45z M30,270v-12c4.1,2.8,8.6,5.4,13.4,7.8C68.1,278.2,100.7,285,135,285
	c8.3,0,16.5-0.4,24.6-1.2c4.6,9.9,10.7,19,17.9,27c-13.4,2.7-27.8,4.2-42.5,4.2C74.9,315,30,291.2,30,270z M255,315
	c-41.4,0-75-33.6-75-75c0-41.2,33.5-74.8,74.7-75c0.1,0,0.2,0,0.3,0s0.2,0,0.3,0c41.2,0.2,74.7,33.8,74.7,75
	C330,281.3,296.3,315,255,315z"/>
</svg>
