<?xml version="1.0" encoding="utf-8"?>
<!-- Generator: Adobe Illustrator 23.0.3, SVG Export Plug-In . SVG Version: 6.00 Build 0)  -->
<svg version="1.1" id="Layer_1" xmlns="http://www.w3.org/2000/svg" xmlns:xlink="http://www.w3.org/1999/xlink" x="0px" y="0px"
	 viewBox="0 0 330 330" style="enable-background:new 0 0 330 330;" xml:space="preserve">
<style type="text/css">
	.st0{fill:#1BBA9A;}
</style>
<g id="XMLID_229_">
	<path id="XMLID_230_" class="st0" d="M329.9,13.9c0-0.2,0-0.5-0.1-0.7c0-0.2-0.1-0.5-0.1-0.7c0-0.3-0.1-0.5-0.1-0.8
		c0-0.2-0.1-0.4-0.2-0.7c-0.1-0.3-0.1-0.5-0.2-0.8c-0.1-0.2-0.2-0.4-0.2-0.6c-0.1-0.2-0.2-0.5-0.3-0.7c-0.1-0.2-0.2-0.4-0.3-0.7
		c-0.1-0.2-0.2-0.4-0.3-0.6c-0.1-0.2-0.3-0.4-0.4-0.7c-0.1-0.2-0.2-0.4-0.4-0.6c-0.1-0.2-0.3-0.4-0.4-0.6c-0.1-0.2-0.3-0.4-0.5-0.6
		c-0.1-0.2-0.3-0.3-0.5-0.5c-0.2-0.2-0.4-0.4-0.6-0.6c-0.1-0.1-0.1-0.1-0.2-0.2c-0.1-0.1-0.2-0.2-0.3-0.3c-0.2-0.2-0.4-0.4-0.6-0.5
		c-0.2-0.1-0.4-0.3-0.6-0.4c-0.2-0.1-0.4-0.3-0.6-0.4c-0.2-0.1-0.4-0.3-0.6-0.4c-0.2-0.1-0.4-0.2-0.6-0.3c-0.2-0.1-0.4-0.2-0.7-0.3
		c-0.2-0.1-0.4-0.2-0.7-0.3c-0.2-0.1-0.5-0.2-0.7-0.3c-0.2-0.1-0.5-0.1-0.7-0.2c-0.2-0.1-0.5-0.1-0.7-0.2c-0.2-0.1-0.5-0.1-0.7-0.1
		c-0.3,0-0.5-0.1-0.8-0.1c-0.2,0-0.5-0.1-0.7-0.1c-0.3,0-0.5,0-0.8,0c-0.1,0-0.3,0-0.4,0h-60c-8.3,0-15,6.7-15,15s6.7,15,15,15h25.7
		l-91.1,98.4l-39-39c-2.9-2.9-6.8-4.4-10.9-4.4c-4.1,0.1-7.9,1.8-10.7,4.8L4,224.7c-5.6,6.1-5.3,15.6,0.8,21.2c2.9,2.7,6.5,4,10.2,4
		c4,0,8.1-1.6,11-4.8l114.4-123.4l39,39c2.9,2.9,6.8,4.5,10.9,4.4c4.1-0.1,7.9-1.8,10.7-4.8l99-106.9V75c0,8.3,6.7,15,15,15
		s15-6.7,15-15V15c0-0.1,0-0.2,0-0.3C330,14.5,330,14.2,329.9,13.9z"/>
	<path id="XMLID_231_" class="st0" d="M315,300H15c-8.3,0-15,6.7-15,15s6.7,15,15,15h300c8.3,0,15-6.7,15-15S323.3,300,315,300z"/>
</g>
</svg>
