<?xml version="1.0" encoding="utf-8"?>
<!-- Generator: Adobe Illustrator 23.0.3, SVG Export Plug-In . SVG Version: 6.00 Build 0)  -->
<svg version="1.1" id="Capa_1" xmlns="http://www.w3.org/2000/svg" xmlns:xlink="http://www.w3.org/1999/xlink" x="0px" y="0px"
	 viewBox="0 0 105.3 111.2" style="enable-background:new 0 0 105.3 111.2;" xml:space="preserve">
<style type="text/css">
	.st0{fill:#1BBA9A;}
</style>
<polygon class="st0" points="3.3,100.2 20.3,100.2 101.3,10.1 84.3,10.1 "/>
<path class="st0" d="M25.7,0.5C11.6,0.5,0.2,11.9,0.2,26s11.4,25.5,25.5,25.5S51.2,40.1,51.2,26S39.8,0.5,25.7,0.5z M25.7,39.7
	C18.2,39.7,12,33.5,12,26s6.1-13.7,13.7-13.7S39.4,18.5,39.4,26S33.2,39.7,25.7,39.7z"/>
<path class="st0" d="M79.3,59.7c-14.1,0-25.5,11.4-25.5,25.5s11.4,25.5,25.5,25.5c14.1,0,25.5-11.4,25.5-25.5S93.4,59.7,79.3,59.7z
	 M79.3,98.9c-7.5,0-13.7-6.1-13.7-13.7s6.1-13.7,13.7-13.7S93,77.7,93,85.2S86.9,98.9,79.3,98.9z"/>
</svg>
